HIERARCHY
ROOT Hips
{
	OFFSET 0.000000 0.000000 0.000000 
	CHANNELS 6 Xposition Yposition Zposition Zrotation Yrotation Xrotation
	JOINT LeftUpLeg
	{
		OFFSET 1.363060 -1.794630 0.839290 
		CHANNELS 3 Zrotation Yrotation Xrotation
		JOINT LeftLeg
		{
			OFFSET 2.448110 -6.726130 0.000000 
			CHANNELS 3 Zrotation Yrotation Xrotation
			JOINT LeftFoot
			{
				OFFSET 2.562200 -7.039590 0.000000 
				CHANNELS 3 Zrotation Yrotation Xrotation
				JOINT LeftToeBase
				{
					OFFSET 0.157640 -0.433110 2.322550 
					CHANNELS 3 Zrotation Yrotation Xrotation
					End Site
					{
						OFFSET 0.000000 0.000000 0.000000 
					}
				}
			}
		}
	}
	JOINT RightUpLeg
	{
		OFFSET -1.305520 -1.794630 0.839290 
		CHANNELS 3 Zrotation Yrotation Xrotation
		JOINT RightLeg
		{
			OFFSET -2.542530 -6.985550 0.000000 
			CHANNELS 3 Zrotation Yrotation Xrotation
			JOINT RightFoot
			{
				OFFSET -2.568260 -7.056230 0.000000 
				CHANNELS 3 Zrotation Yrotation Xrotation
				JOINT RightToeBase
				{
					OFFSET -0.164730 -0.452590 2.363150 
					CHANNELS 3 Zrotation Yrotation Xrotation
					End Site
					{
						OFFSET 0.000000 0.000000 0.000000 
					}
				}
			}
		}
	}
	JOINT Spine
	{
		OFFSET 0.028270 2.035590 -0.193380 
		CHANNELS 3 Zrotation Yrotation Xrotation
		JOINT Spine1
		{
			OFFSET 0.056720 2.048850 -0.042750 
			CHANNELS 3 Zrotation Yrotation Xrotation
			JOINT Neck1
			{
				OFFSET -0.054170 1.746240 0.172020 
				CHANNELS 3 Zrotation Yrotation Xrotation
				JOINT Head
				{
					OFFSET 0.104070 1.761360 -0.123970 
					CHANNELS 3 Zrotation Yrotation Xrotation
					End Site
					{
						OFFSET 0.000000 0.000000 0.000000 
					}
				}
			}
			JOINT LeftArm
			{
				OFFSET 3.362410 1.200890 -0.311210 
				CHANNELS 3 Zrotation Yrotation Xrotation
				JOINT LeftForeArm
				{
					OFFSET 4.983000 -0.000000 -0.000000 
					CHANNELS 3 Zrotation Yrotation Xrotation
					JOINT LeftHand
					{
						OFFSET 3.483560 -0.000000 -0.000000 
						CHANNELS 3 Zrotation Yrotation Xrotation
						JOINT LeftHandIndex1
						{
							OFFSET 0.715260 -0.000000 -0.000000 
							CHANNELS 3 Zrotation Yrotation Xrotation
							End Site
							{
								OFFSET 0.000000 0.000000 0.000000 
							}
						}
					}
				}
			}
			JOINT RightArm
			{
				OFFSET -3.136600 1.374050 -0.404650 
				CHANNELS 3 Zrotation Yrotation Xrotation
				JOINT RightForeArm
				{
					OFFSET -5.241900 -0.000000 -0.000000 
					CHANNELS 3 Zrotation Yrotation Xrotation
					JOINT RightHand
					{
						OFFSET -3.444170 -0.000000 -0.000000 
						CHANNELS 3 Zrotation Yrotation Xrotation
						JOINT RightHandIndex1
						{
							OFFSET -0.622530 -0.000000 -0.000000 
							CHANNELS 3 Zrotation Yrotation Xrotation
							End Site
							{
								OFFSET 0.000000 0.000000 0.000000 
							}
						}
					}
				}
			}
		}
	}
}
MOTION
Frames: 10
Frame Time: 0.041667
0.276080 14.017760 1.694597 1.158061 -3.980405 2.123548 -13.529191 9.634819 -47.814510 18.566222 20.646408 85.364387 2.447196 1.008097 -28.080107 1.034000 -6.467800 -18.148000 13.603211 10.379121 -46.637070 -19.292414 -21.444794 87.768504 -2.490735 -5.720554 -33.714739 -0.034000 1.191100 -3.274700 0.944300 1.631677 0.902201 -0.026744 0.453435 7.579236 -3.970792 7.583292 -0.613963 -2.711900 3.395700 1.282000 -82.861651 -31.179612 42.800892 16.750055 -30.583310 -5.197235 0.016291 -0.637627 -15.429091 -7.125000 0.000000 0.000000 94.039306 29.990207 58.658667 -36.048791 47.596460 -17.581587 0.456112 0.364546 26.042254 7.125000 0.000000 0.000000 
0.275267 13.928816 1.659833 0.463192 -4.082358 2.175802 -12.362508 8.952806 -48.534644 19.160804 20.712789 87.046716 2.388359 1.114468 -27.866727 1.155000 -6.823300 -19.192900 14.296134 9.515714 -47.493713 -19.580285 -21.448852 88.553854 -2.656000 -4.860447 -33.751279 -0.041700 1.318300 -3.625100 1.066250 1.725622 1.009901 0.311080 0.448942 7.614030 -4.292231 7.708627 -1.107168 -2.904600 3.428000 1.139300 -82.794270 -32.373093 43.200634 16.856586 -30.717254 -5.255636 0.020504 -0.630356 -15.434200 -7.125000 0.000000 0.000000 93.439689 30.629242 58.431652 -36.556114 47.904522 -17.982322 0.455347 0.374351 25.866101 7.125000 0.000000 0.000000 
0.277300 13.840686 1.629745 -0.301506 -4.193051 2.247304 -11.093662 8.295603 -49.247031 19.770005 20.762424 88.754034 2.371421 0.996442 -27.662108 1.252800 -7.096200 -20.000500 15.070181 8.696764 -48.332417 -19.852959 -21.449252 89.302128 -2.782745 -4.145267 -33.740942 -0.052700 1.481800 -4.075700 1.196251 1.842513 1.106173 0.636740 0.459264 7.606119 -4.574831 7.761352 -1.529459 -3.061200 3.431800 1.002000 -82.751240 -33.538961 43.716029 16.907018 -30.776136 -5.281524 0.020908 -0.622166 -15.265398 -7.125000 0.000000 0.000000 92.781945 31.253109 58.086255 -36.934935 48.131571 -18.293548 0.451264 0.380119 25.909939 7.125000 0.000000 0.000000 
0.278723 13.758350 1.600368 -1.043540 -4.183927 2.376763 -9.844470 7.508000 -50.027146 20.349943 20.801760 90.388966 2.320335 0.997216 -27.380302 1.361000 -7.384300 -20.859200 15.840383 7.783587 -49.194410 -20.113135 -21.442493 90.016642 -2.890646 -3.493676 -33.703446 -0.067700 1.678300 -4.617400 1.334887 1.937434 1.190442 0.990666 0.454725 7.573134 -4.911806 7.845531 -2.005852 -3.257600 3.448500 0.834500 -82.781145 -34.623618 44.269047 17.016128 -30.907827 -5.339361 0.025623 -0.614383 -15.203543 -7.125000 0.000000 0.000000 92.013448 31.842806 57.712583 -37.315391 48.360465 -18.609763 0.448304 0.386044 25.495793 7.125000 0.000000 0.000000 
0.278113 13.669610 1.568959 -1.875717 -4.260369 2.624684 -8.486733 6.813986 -51.038603 20.917373 20.828907 91.994357 2.211552 1.237593 -27.004303 1.506800 -7.752700 -21.965500 16.694372 7.110416 -50.192055 -20.379395 -21.442762 90.742178 -3.022606 -2.694028 -33.668334 -0.076600 1.785600 -4.913500 1.492440 2.080725 1.281954 1.440114 0.456464 7.624463 -5.083423 7.932813 -2.304656 -3.305000 3.473400 0.801200 -82.890524 -35.830207 44.692398 17.080651 -30.987559 -5.375370 0.032314 -0.606821 -15.273370 -7.125000 0.000000 0.000000 91.188732 32.700109 57.321372 -37.511351 48.479815 -18.798272 0.431994 0.405331 24.457653 7.125000 0.000000 0.000000 
0.276995 13.583513 1.537447 -2.672882 -4.111669 2.848897 -7.117981 5.959009 -51.915102 21.503338 20.842833 93.613347 2.291772 0.582840 -26.823563 1.445000 -7.599200 -21.503300 17.508299 6.221473 -51.147237 -20.639609 -21.430763 91.447555 -3.162601 -1.882325 -33.680731 -0.085400 1.884800 -5.187300 1.646602 2.151678 1.343729 1.837318 0.434539 7.552775 -5.266792 7.960264 -2.706868 -3.412000 3.474700 0.634600 -82.946062 -36.857227 45.290509 17.168475 -31.088026 -5.420199 0.032805 -0.597182 -15.384606 -7.125000 0.000000 0.000000 90.335975 33.157795 56.983501 -37.779175 48.641511 -19.022800 0.463174 0.397602 24.480256 7.125000 0.000000 0.000000 
0.276080 13.495587 1.505428 -3.456986 -4.100652 3.125437 -5.793485 5.293192 -52.930705 22.051196 20.841866 95.139708 2.309244 0.198039 -26.560613 1.432400 -7.567400 -21.407700 18.318322 5.550856 -52.172844 -20.899042 -21.424055 92.157185 -3.267219 -1.206825 -33.641520 -0.095300 1.990400 -5.479100 1.802829 2.307470 1.403508 2.277656 0.443375 7.473668 -5.477473 8.035982 -3.064855 -3.525100 3.493300 0.536100 -83.070470 -37.889542 45.825691 17.279486 -31.215029 -5.478349 0.038370 -0.587648 -15.521968 -7.125000 0.000000 0.000000 89.406632 33.763369 56.528394 -38.085290 48.822175 -19.284802 0.468412 0.419998 24.453593 7.125000 0.000000 0.000000 
0.274453 13.408371 1.471477 -4.181345 -3.887887 3.468624 -4.614220 4.515102 -54.076148 22.549526 20.839541 96.563242 2.234135 0.344104 -26.279186 1.503100 -7.743600 -21.938000 19.056525 4.712485 -53.295681 -21.166641 -21.409335 92.881027 -3.394176 -0.413400 -33.631393 -0.093200 1.969000 -5.420000 1.962718 2.383937 1.465898 2.755867 0.407163 7.443631 -5.499497 8.044553 -3.362019 -3.504500 3.491100 0.461900 -83.228234 -39.045616 46.361460 17.299903 -31.232936 -5.487351 0.041273 -0.577897 -15.778393 -7.125000 0.000000 0.000000 88.455915 34.525340 55.984167 -38.339743 48.973669 -19.515532 0.457350 0.458040 24.199196 7.125000 0.000000 0.000000 
0.275572 13.330000 1.442202 -4.907707 -3.585738 3.647252 -3.485946 3.850033 -54.968551 23.024418 20.821059 97.909949 2.238066 0.192149 -26.174811 1.482100 -7.691700 -21.781600 19.842976 3.731632 -54.177535 -21.413377 -21.381436 93.544652 -3.531362 0.411935 -33.665413 -0.091200 1.948100 -5.362200 2.119239 2.431811 1.520790 3.153724 0.371880 7.300832 -5.613711 8.077393 -3.748307 -3.564500 3.498300 0.319400 -83.321062 -39.999176 46.965757 17.518656 -31.484824 -5.601566 0.050611 -0.568889 -16.015621 -7.125000 0.000000 0.000000 87.491003 35.014462 55.525596 -38.480118 49.056693 -19.646929 0.472906 0.469645 23.718033 7.125000 0.000000 0.000000 
0.272319 13.243496 1.407336 -5.706801 -3.607930 4.092436 -2.373836 3.663712 -56.244985 23.470667 20.785501 99.186528 2.183866 0.374787 -26.057398 1.510400 -7.761600 -21.992200 20.710886 3.278211 -55.403133 -21.672566 -21.377723 94.254998 -3.612058 1.049348 -33.569425 -0.093300 1.969600 -5.421700 2.259839 2.654215 1.582695 3.532980 0.419969 7.275555 -5.696629 8.059489 -4.158332 -3.611100 3.479700 0.173700 -83.310832 -41.117150 47.572638 17.633004 -31.621677 -5.663654 0.055496 -0.560428 -16.268523 -7.125000 0.000000 0.000000 86.568208 35.678196 54.971539 -38.565083 49.112084 -19.743794 0.472209 0.495798 23.400195 7.125000 0.000000 0.000000 
